<svg width="30" height="28" viewBox="0 0 30 28" fill="none" xmlns="http://www.w3.org/2000/svg">
<path fill-rule="evenodd" clip-rule="evenodd" d="M25.791 13.7554C27.8569 12.4235 29.224 10.1086 29.224 7.47573C29.224 3.347 25.8622 0 21.7152 0C17.5682 0 14.2064 3.347 14.2064 7.47573C14.2064 7.57152 14.2082 7.66689 14.2118 7.7618C13.6136 7.72419 13.0103 7.87739 12.441 8.1417C11.4949 5.77857 9.16764 4.10761 6.44657 4.10761C2.88623 4.10761 0 6.9683 0 10.4971C0 13.769 2.48121 16.4665 5.68041 16.842V23.1511C5.68041 25.8292 7.85147 28.0002 10.5296 28.0002H20.9429C23.6211 28.0002 25.7921 25.8292 25.7921 23.1511V13.8624C25.7921 13.8266 25.7917 13.791 25.791 13.7554Z" fill="#536894"/>
<path d="M20 18.5C20 20.9853 17.9853 23 15.5 23C13.0147 23 11 20.9853 11 18.5C11 16.0147 13.0147 14 15.5 14C17.9853 14 20 16.0147 20 18.5Z" fill="white"/>
</svg>
