<svg width="84" height="28" viewBox="0 0 84 28" fill="none" xmlns="http://www.w3.org/2000/svg">
<path fill-rule="evenodd" clip-rule="evenodd" d="M25.791 13.7554C27.8569 12.4235 29.224 10.1086 29.224 7.47573C29.224 3.347 25.8622 0 21.7152 0C17.5682 0 14.2064 3.347 14.2064 7.47573C14.2064 7.57152 14.2082 7.66689 14.2118 7.7618C13.6136 7.72419 13.0103 7.87739 12.441 8.1417C11.4949 5.77857 9.16764 4.10761 6.44657 4.10761C2.88623 4.10761 0 6.9683 0 10.4971C0 13.769 2.48121 16.4665 5.68041 16.842V23.1511C5.68041 25.8292 7.85147 28.0002 10.5296 28.0002H20.9429C23.6211 28.0002 25.7921 25.8292 25.7921 23.1511V13.8624C25.7921 13.8266 25.7917 13.791 25.791 13.7554Z" fill="#536894"/>
<path d="M20 18.5C20 20.9853 17.9853 23 15.5 23C13.0147 23 11 20.9853 11 18.5C11 16.0147 13.0147 14 15.5 14C17.9853 14 20 16.0147 20 18.5Z" fill="white"/>
<path d="M45.6671 11.493C45.4518 11.493 45.2998 11.4993 45.2111 11.512C45.1351 11.512 45.0148 11.5057 44.8501 11.493C44.8501 11.6323 44.8438 11.797 44.8311 11.987C44.8311 12.177 44.8311 12.367 44.8311 12.557C44.8311 12.747 44.8311 12.937 44.8311 13.127C44.8311 13.3043 44.8311 13.4563 44.8311 13.583C45.1098 13.887 45.4138 14.229 45.7431 14.609C46.0725 14.9763 46.3828 15.3183 46.6741 15.635C46.8261 15.8123 46.9528 16.0467 47.0541 16.338C47.1555 16.6293 47.1681 16.9017 47.0921 17.155C47.0288 17.3703 46.8831 17.516 46.6551 17.592C46.4398 17.668 46.2371 17.668 46.0471 17.592C45.7558 17.478 45.5088 17.3197 45.3061 17.117C45.1161 16.9143 44.9135 16.6927 44.6981 16.452L43.7861 15.54L42.3611 17.212C42.1585 17.4273 41.9685 17.592 41.7911 17.706C41.6265 17.8073 41.4491 17.858 41.2591 17.858C41.0565 17.858 40.8918 17.8137 40.7651 17.725C40.6385 17.6363 40.5498 17.5223 40.4991 17.383C40.4611 17.2437 40.4485 17.0917 40.4611 16.927C40.4865 16.7497 40.5371 16.5787 40.6131 16.414C40.6385 16.3507 40.6638 16.2937 40.6891 16.243C40.7271 16.1797 40.7588 16.1163 40.7841 16.053C40.7081 15.9643 40.6258 15.8757 40.5371 15.787C40.4611 15.6983 40.3725 15.6033 40.2711 15.502L38.5801 17.345C38.3775 17.5603 38.2065 17.6997 38.0671 17.763C37.9278 17.8263 37.7631 17.858 37.5731 17.858C37.3705 17.858 37.2121 17.801 37.0981 17.687C36.9841 17.573 36.9081 17.4337 36.8701 17.269C36.8321 17.1043 36.8258 16.927 36.8511 16.737C36.8891 16.547 36.9588 16.376 37.0601 16.224C37.3515 15.768 37.6745 15.3247 38.0291 14.894C38.3838 14.4633 38.7448 14.0263 39.1121 13.583V11.493H38.6181C38.4788 11.493 38.3268 11.4993 38.1621 11.512C37.9975 11.5247 37.8328 11.5183 37.6681 11.493C37.5035 11.4677 37.3515 11.417 37.2121 11.341C37.0728 11.2523 36.9715 11.113 36.9081 10.923C36.8448 10.7837 36.8195 10.6317 36.8321 10.467C36.8575 10.2897 36.9081 10.1313 36.9841 9.992C37.0475 9.86533 37.1615 9.77033 37.3261 9.707C37.4908 9.631 37.6365 9.58033 37.7631 9.555C37.8518 9.54233 37.9595 9.52967 38.0861 9.517C38.2128 9.50433 38.3965 9.498 38.6371 9.498C38.8905 9.48533 39.2135 9.479 39.6061 9.479C40.0115 9.479 40.5308 9.479 41.1641 9.479C41.2655 9.46633 41.3731 9.46633 41.4871 9.479C41.6011 9.479 41.7088 9.479 41.8101 9.479H42.3991H42.4751H45.5911C45.8065 9.479 45.9838 9.48533 46.1231 9.498C46.2751 9.51067 46.4018 9.536 46.5031 9.574C46.6171 9.612 46.7121 9.669 46.7881 9.745C46.8768 9.821 46.9655 9.916 47.0541 10.03C47.1048 10.106 47.1365 10.2073 47.1491 10.334C47.1745 10.448 47.1745 10.5747 47.1491 10.714C47.1365 10.8407 47.1048 10.961 47.0541 11.075C47.0035 11.189 46.9401 11.265 46.8641 11.303C46.7755 11.341 46.6741 11.3853 46.5601 11.436C46.4461 11.474 46.3385 11.493 46.2371 11.493C46.0978 11.5057 46.0028 11.512 45.9521 11.512C45.9141 11.4993 45.8191 11.493 45.6671 11.493ZM48.6311 19.131C49.0111 19.1183 49.3088 19.15 49.5241 19.226C49.7521 19.302 49.9295 19.4033 50.0561 19.53C50.1828 19.6567 50.2651 19.796 50.3031 19.948C50.3411 20.1 50.3601 20.252 50.3601 20.404V22.608C50.3855 22.8867 50.3855 23.1653 50.3601 23.444C50.3348 23.71 50.2271 23.9253 50.0371 24.09C49.8598 24.2547 49.6255 24.337 49.3341 24.337C49.2708 24.337 49.1568 24.3307 48.9921 24.318C48.8275 24.318 48.7135 24.3053 48.6501 24.28C48.4855 24.2293 48.3525 24.1533 48.2511 24.052C48.1625 23.9507 48.0928 23.8367 48.0421 23.71C47.9915 23.5833 47.9598 23.444 47.9471 23.292C47.9345 23.1527 47.9218 23.0133 47.9091 22.874C47.9091 22.8233 47.9028 22.722 47.8901 22.57C47.8901 22.4307 47.8838 22.2787 47.8711 22.114C47.8711 21.962 47.8648 21.8163 47.8521 21.677C47.8521 21.5377 47.8458 21.4427 47.8331 21.392C47.7951 21.3793 47.6875 21.3667 47.5101 21.354C47.3455 21.3413 47.0288 21.335 46.5601 21.335C46.1548 21.335 45.9015 21.3413 45.8001 21.354C45.7115 21.354 45.6608 21.3603 45.6481 21.373H38.7891L38.7701 21.354C38.7701 21.354 38.7258 21.3413 38.6371 21.316C38.5611 21.2907 38.4725 21.2527 38.3711 21.202C38.2698 21.1513 38.1685 21.0817 38.0671 20.993C37.9785 20.9043 37.9278 20.7903 37.9151 20.651C37.8518 20.1697 37.9341 19.7897 38.1621 19.511C38.3141 19.3337 38.4788 19.2323 38.6561 19.207C38.8335 19.169 38.9285 19.15 38.9411 19.15L48.6311 19.131ZM50.7021 16.414C50.7021 16.414 50.6958 16.4583 50.6831 16.547C50.6705 16.6357 50.6451 16.737 50.6071 16.851C50.5691 16.965 50.5121 17.0853 50.4361 17.212C50.3601 17.326 50.2588 17.421 50.1321 17.497C49.9548 17.5983 49.7775 17.649 49.6001 17.649C49.3848 17.649 49.1758 17.5793 48.9731 17.44C48.8338 17.3387 48.7261 17.2057 48.6501 17.041C48.5488 16.851 48.4791 16.642 48.4411 16.414C48.4158 16.186 48.3968 15.9517 48.3841 15.711C48.3841 15.4703 48.3905 15.236 48.4031 15.008C48.4158 14.7673 48.4221 14.5393 48.4221 14.324C48.4348 13.7793 48.4411 13.241 48.4411 12.709C48.4411 12.1643 48.4411 11.626 48.4411 11.094V10.847C48.4285 10.7077 48.4221 10.562 48.4221 10.41C48.4348 10.2453 48.4601 10.0933 48.4981 9.954C48.5488 9.764 48.6628 9.56133 48.8401 9.346C48.9415 9.21933 49.0808 9.13067 49.2581 9.08C49.4481 9.01667 49.6508 8.99767 49.8661 9.023C50.2461 9.08633 50.4995 9.251 50.6261 9.517C50.7021 9.68167 50.7338 9.88433 50.7211 10.125C50.7211 10.3657 50.7148 10.5113 50.7021 10.562V16.414ZM42.2661 11.493C42.1648 11.493 42.0761 11.4993 42.0001 11.512C41.9368 11.512 41.8735 11.512 41.8101 11.512H41.4301C41.4048 11.8667 41.3921 12.234 41.3921 12.614C41.3921 12.9813 41.4111 13.336 41.4491 13.678L42.0191 14.324C42.2978 13.944 42.4941 13.697 42.6081 13.583V11.512C42.5575 11.512 42.5068 11.512 42.4561 11.512C42.4181 11.4993 42.3548 11.493 42.2661 11.493ZM61.3469 11.493C61.1316 11.493 60.9796 11.4993 60.8909 11.512C60.8149 11.512 60.6946 11.5057 60.5299 11.493C60.5299 11.6323 60.5236 11.797 60.5109 11.987C60.5109 12.177 60.5109 12.367 60.5109 12.557C60.5109 12.747 60.5109 12.937 60.5109 13.127C60.5109 13.3043 60.5109 13.4563 60.5109 13.583C60.7896 13.887 61.0936 14.229 61.4229 14.609C61.7523 14.9763 62.0626 15.3183 62.3539 15.635C62.5059 15.8123 62.6326 16.0467 62.7339 16.338C62.8353 16.6293 62.8479 16.9017 62.7719 17.155C62.7086 17.3703 62.5629 17.516 62.3349 17.592C62.1196 17.668 61.9169 17.668 61.7269 17.592C61.4356 17.478 61.1886 17.3197 60.9859 17.117C60.7959 16.9143 60.5933 16.6927 60.3779 16.452L59.4659 15.54L58.0409 17.212C57.8383 17.4273 57.6483 17.592 57.4709 17.706C57.3063 17.8073 57.1289 17.858 56.9389 17.858C56.7363 17.858 56.5716 17.8137 56.4449 17.725C56.3183 17.6363 56.2296 17.5223 56.1789 17.383C56.1409 17.2437 56.1283 17.0917 56.1409 16.927C56.1663 16.7497 56.2169 16.5787 56.2929 16.414C56.3183 16.3507 56.3436 16.2937 56.3689 16.243C56.4069 16.1797 56.4386 16.1163 56.4639 16.053C56.3879 15.9643 56.3056 15.8757 56.2169 15.787C56.1409 15.6983 56.0523 15.6033 55.9509 15.502L54.2599 17.345C54.0573 17.5603 53.8863 17.6997 53.7469 17.763C53.6076 17.8263 53.4429 17.858 53.2529 17.858C53.0503 17.858 52.8919 17.801 52.7779 17.687C52.6639 17.573 52.5879 17.4337 52.5499 17.269C52.5119 17.1043 52.5056 16.927 52.5309 16.737C52.5689 16.547 52.6386 16.376 52.7399 16.224C53.0313 15.768 53.3543 15.3247 53.7089 14.894C54.0636 14.4633 54.4246 14.0263 54.7919 13.583V11.493H54.2979C54.1586 11.493 54.0066 11.4993 53.8419 11.512C53.6773 11.5247 53.5126 11.5183 53.3479 11.493C53.1833 11.4677 53.0313 11.417 52.8919 11.341C52.7526 11.2523 52.6513 11.113 52.5879 10.923C52.5246 10.7837 52.4993 10.6317 52.5119 10.467C52.5373 10.2897 52.5879 10.1313 52.6639 9.992C52.7273 9.86533 52.8413 9.77033 53.0059 9.707C53.1706 9.631 53.3163 9.58033 53.4429 9.555C53.5316 9.54233 53.6393 9.52967 53.7659 9.517C53.8926 9.50433 54.0763 9.498 54.3169 9.498C54.5703 9.48533 54.8933 9.479 55.2859 9.479C55.6913 9.479 56.2106 9.479 56.8439 9.479C56.9453 9.46633 57.0529 9.46633 57.1669 9.479C57.2809 9.479 57.3886 9.479 57.4899 9.479H58.0789H58.1549H61.2709C61.4863 9.479 61.6636 9.48533 61.8029 9.498C61.9549 9.51067 62.0816 9.536 62.1829 9.574C62.2969 9.612 62.3919 9.669 62.4679 9.745C62.5566 9.821 62.6453 9.916 62.7339 10.03C62.7846 10.106 62.8163 10.2073 62.8289 10.334C62.8543 10.448 62.8543 10.5747 62.8289 10.714C62.8163 10.8407 62.7846 10.961 62.7339 11.075C62.6833 11.189 62.6199 11.265 62.5439 11.303C62.4553 11.341 62.3539 11.3853 62.2399 11.436C62.1259 11.474 62.0183 11.493 61.9169 11.493C61.7776 11.5057 61.6826 11.512 61.6319 11.512C61.5939 11.4993 61.4989 11.493 61.3469 11.493ZM64.3109 19.131C64.6909 19.1183 64.9886 19.15 65.2039 19.226C65.4319 19.302 65.6093 19.4033 65.7359 19.53C65.8626 19.6567 65.9449 19.796 65.9829 19.948C66.0209 20.1 66.0399 20.252 66.0399 20.404V22.608C66.0653 22.8867 66.0653 23.1653 66.0399 23.444C66.0146 23.71 65.9069 23.9253 65.7169 24.09C65.5396 24.2547 65.3053 24.337 65.0139 24.337C64.9506 24.337 64.8366 24.3307 64.6719 24.318C64.5073 24.318 64.3933 24.3053 64.3299 24.28C64.1653 24.2293 64.0323 24.1533 63.9309 24.052C63.8423 23.9507 63.7726 23.8367 63.7219 23.71C63.6713 23.5833 63.6396 23.444 63.6269 23.292C63.6143 23.1527 63.6016 23.0133 63.5889 22.874C63.5889 22.8233 63.5826 22.722 63.5699 22.57C63.5699 22.4307 63.5636 22.2787 63.5509 22.114C63.5509 21.962 63.5446 21.8163 63.5319 21.677C63.5319 21.5377 63.5256 21.4427 63.5129 21.392C63.4749 21.3793 63.3673 21.3667 63.1899 21.354C63.0253 21.3413 62.7086 21.335 62.2399 21.335C61.8346 21.335 61.5813 21.3413 61.4799 21.354C61.3913 21.354 61.3406 21.3603 61.3279 21.373H54.4689L54.4499 21.354C54.4499 21.354 54.4056 21.3413 54.3169 21.316C54.2409 21.2907 54.1523 21.2527 54.0509 21.202C53.9496 21.1513 53.8483 21.0817 53.7469 20.993C53.6583 20.9043 53.6076 20.7903 53.5949 20.651C53.5316 20.1697 53.6139 19.7897 53.8419 19.511C53.9939 19.3337 54.1586 19.2323 54.3359 19.207C54.5133 19.169 54.6083 19.15 54.6209 19.15L64.3109 19.131ZM66.3819 16.414C66.3819 16.414 66.3756 16.4583 66.3629 16.547C66.3503 16.6357 66.3249 16.737 66.2869 16.851C66.2489 16.965 66.1919 17.0853 66.1159 17.212C66.0399 17.326 65.9386 17.421 65.8119 17.497C65.6346 17.5983 65.4573 17.649 65.2799 17.649C65.0646 17.649 64.8556 17.5793 64.6529 17.44C64.5136 17.3387 64.4059 17.2057 64.3299 17.041C64.2286 16.851 64.1589 16.642 64.1209 16.414C64.0956 16.186 64.0766 15.9517 64.0639 15.711C64.0639 15.4703 64.0703 15.236 64.0829 15.008C64.0956 14.7673 64.1019 14.5393 64.1019 14.324C64.1146 13.7793 64.1209 13.241 64.1209 12.709C64.1209 12.1643 64.1209 11.626 64.1209 11.094V10.847C64.1083 10.7077 64.1019 10.562 64.1019 10.41C64.1146 10.2453 64.1399 10.0933 64.1779 9.954C64.2286 9.764 64.3426 9.56133 64.5199 9.346C64.6213 9.21933 64.7606 9.13067 64.9379 9.08C65.1279 9.01667 65.3306 8.99767 65.5459 9.023C65.9259 9.08633 66.1793 9.251 66.3059 9.517C66.3819 9.68167 66.4136 9.88433 66.4009 10.125C66.4009 10.3657 66.3946 10.5113 66.3819 10.562V16.414ZM57.9459 11.493C57.8446 11.493 57.7559 11.4993 57.6799 11.512C57.6166 11.512 57.5533 11.512 57.4899 11.512H57.1099C57.0846 11.8667 57.0719 12.234 57.0719 12.614C57.0719 12.9813 57.0909 13.336 57.1289 13.678L57.6989 14.324C57.9776 13.944 58.1739 13.697 58.2879 13.583V11.512C58.2373 11.512 58.1866 11.512 58.1359 11.512C58.0979 11.4993 58.0346 11.493 57.9459 11.493ZM72.2768 8.966C72.4414 8.966 72.5998 8.97233 72.7518 8.985C72.9038 8.99767 73.0558 9.01667 73.2078 9.042C73.6891 9.118 74.1134 9.33967 74.4808 9.707C74.7848 10.0363 75.0318 10.4163 75.2218 10.847C75.4244 11.265 75.5828 11.7083 75.6968 12.177C75.8108 12.6457 75.8931 13.127 75.9438 13.621C75.9944 14.1023 76.0324 14.571 76.0578 15.027C76.0831 15.6097 76.0894 16.1923 76.0768 16.775C76.0641 17.3577 76.0261 17.934 75.9628 18.504C75.8994 19.0993 75.8044 19.701 75.6778 20.309C75.5638 20.9043 75.3484 21.4427 75.0318 21.924C74.7658 22.3293 74.4364 22.6587 74.0438 22.912C73.6511 23.178 73.2394 23.3553 72.8088 23.444C72.4161 23.52 72.0171 23.5327 71.6118 23.482C71.2064 23.4313 70.8201 23.2983 70.4528 23.083C70.1108 22.8803 69.8194 22.627 69.5788 22.323C69.3508 22.019 69.1481 21.6643 68.9708 21.259C68.7174 20.651 68.5718 20.024 68.5338 19.378C68.4831 18.846 68.4451 18.314 68.4198 17.782C68.4071 17.25 68.4008 16.718 68.4008 16.186C68.4008 15.4767 68.4388 14.7673 68.5148 14.058C68.5401 13.7667 68.5654 13.4817 68.5908 13.203C68.6161 12.9117 68.6541 12.6267 68.7048 12.348C68.7554 12.12 68.7998 11.9047 68.8378 11.702C68.8758 11.4993 68.9454 11.2903 69.0468 11.075C69.1481 10.8597 69.2558 10.657 69.3698 10.467C69.4964 10.277 69.6421 10.106 69.8068 9.954C70.0854 9.67533 70.3958 9.46 70.7378 9.308C71.0798 9.156 71.4344 9.05467 71.8018 9.004C71.8778 8.99133 71.9538 8.985 72.0298 8.985C72.1184 8.985 72.2008 8.97867 72.2768 8.966ZM81.4918 22.57C81.4664 22.722 81.4474 22.8677 81.4348 23.007C81.4221 23.159 81.3904 23.311 81.3398 23.463C81.3144 23.5137 81.2954 23.558 81.2828 23.596C81.2701 23.634 81.2511 23.6783 81.2258 23.729C81.1371 23.9063 81.0231 24.0457 80.8838 24.147C80.5924 24.3243 80.2694 24.3687 79.9148 24.28C79.7121 24.242 79.5474 24.166 79.4208 24.052C79.3068 23.9507 79.2181 23.8177 79.1548 23.653C79.1041 23.501 79.0598 23.349 79.0218 23.197C78.9964 23.045 78.9838 22.912 78.9838 22.798C78.9838 22.684 78.9838 22.6207 78.9838 22.608V11.113C78.9838 10.961 78.9838 10.7963 78.9838 10.619C78.9838 10.4417 78.9964 10.2643 79.0218 10.087C79.0471 9.90967 79.0851 9.745 79.1358 9.593C79.1864 9.441 79.2561 9.32067 79.3448 9.232C79.4841 9.09267 79.6298 9.01033 79.7818 8.985C79.9338 8.947 80.0984 8.928 80.2758 8.928C80.4911 8.928 80.6874 8.99133 80.8648 9.118C81.0548 9.232 81.1878 9.39667 81.2638 9.612C81.3778 9.878 81.4411 10.1567 81.4538 10.448C81.4664 10.7393 81.4791 11.0307 81.4918 11.322V11.417C81.5171 12.3923 81.5234 13.393 81.5108 14.419C81.4981 15.445 81.4918 16.414 81.4918 17.326V21.886C81.4918 22 81.4918 22.114 81.4918 22.228C81.5044 22.342 81.5044 22.456 81.4918 22.57ZM72.2198 20.917C72.4604 20.917 72.6948 20.841 72.9228 20.689C73.1381 20.537 73.2901 20.3343 73.3788 20.081C73.4674 19.8277 73.5434 19.549 73.6068 19.245C73.7081 18.6623 73.7651 18.0417 73.7778 17.383C73.7904 16.7243 73.7841 16.091 73.7588 15.483C73.7588 15.2423 73.7524 14.989 73.7398 14.723C73.7271 14.4443 73.7018 14.172 73.6638 13.906C73.6384 13.64 73.5941 13.3867 73.5308 13.146C73.4674 12.8927 73.3788 12.671 73.2648 12.481C73.1381 12.2657 72.9861 12.101 72.8088 11.987C72.6314 11.873 72.4414 11.8287 72.2388 11.854C72.0234 11.8793 71.8271 11.9553 71.6498 12.082C71.4724 12.2087 71.3268 12.3987 71.2128 12.652L71.0418 13.051C70.9658 13.2917 70.9088 13.545 70.8708 13.811C70.8328 14.0643 70.8011 14.3177 70.7758 14.571C70.7504 14.8243 70.7314 15.084 70.7188 15.35C70.7061 15.616 70.6998 15.8757 70.6998 16.129C70.7124 16.3823 70.7061 16.6293 70.6808 16.87C70.6681 17.1107 70.6744 17.3577 70.6998 17.611C70.7251 17.9403 70.7568 18.295 70.7948 18.675C70.8454 19.055 70.9214 19.416 71.0228 19.758C71.1241 20.0873 71.2698 20.366 71.4598 20.594C71.6498 20.8093 71.9031 20.917 72.2198 20.917Z" fill="#536894"/>
</svg>
