<svg width="90" height="87" viewBox="0 0 90 87" fill="none" xmlns="http://www.w3.org/2000/svg">
<path fill-rule="evenodd" clip-rule="evenodd" d="M79.4268 42.3587C85.788 38.257 89.997 31.1287 89.997 23.0216C89.997 10.3071 79.6443 0 66.8735 0C54.1027 0 43.75 10.3071 43.75 23.0216C43.75 23.3162 43.7556 23.6095 43.7666 23.9014C41.9244 23.7881 40.0667 24.2618 38.314 25.0772C35.4018 17.7976 28.2336 12.6497 19.8523 12.6497C8.88818 12.6497 0 21.4592 0 32.3263C0 42.4032 7.64257 50.7109 17.4961 51.8658V71.2938C17.4961 79.5412 24.1819 86.227 32.4292 86.227H64.4973C72.7446 86.227 79.4304 79.5412 79.4304 71.2938V42.6893C79.4304 42.5788 79.4292 42.4686 79.4268 42.3587Z" fill="#536894"/>
<path d="M63.2494 59.6447C63.2494 67.7465 56.6816 74.3144 48.5798 74.3144C40.478 74.3144 33.9102 67.7465 33.9102 59.6447C33.9102 51.5429 40.478 44.9751 48.5798 44.9751C56.6816 44.9751 63.2494 51.5429 63.2494 59.6447Z" fill="#F6F6F6"/>
<path d="M59 60.0205C59 65.8195 54.299 70.5205 48.5 70.5205C42.701 70.5205 38 65.8195 38 60.0205C38 54.2215 42.701 49.5205 48.5 49.5205C54.299 49.5205 59 54.2215 59 60.0205Z" fill="#536894"/>
<path d="M34.7716 40.0588C35.7596 41.9773 35.0053 44.3334 33.0869 45.3215C31.1684 46.3095 28.8122 45.5552 27.8242 43.6367" stroke="#F6F6F6" stroke-width="2.04728" stroke-linecap="round"/>
<path d="M46.9943 34.3645C47.9823 36.2829 47.228 38.6391 45.3095 39.6271C43.3911 40.6151 41.0349 39.8609 40.0469 37.9424" stroke="#F6F6F6" stroke-width="2.04728" stroke-linecap="round"/>
</svg>
